<svg xmlns="http://www.w3.org/2000/svg" width="955.667" height="690.982" viewBox="0 0 955.667 690.982"><defs><style>.a,.b{fill:#38d39f;}.a,.d,.u{opacity:0.1;}.c,.j{fill:none;}.c{stroke:#565987;stroke-miterlimit:10;}.e{fill:#ffd037;}.f{fill:#a8a8a8;}.g{opacity:0.2;}.h{fill:#eec5cd;}.i{fill:#b77b7f;}.k{fill:#ffd2c6;}.l{fill:#d38884;}.m{fill:#626696;}.n{fill:#4c4981;}.o{opacity:0.05;}.p{fill:#ceddf9;}.q{fill:#cc8294;}.r{fill:#1e1637;}.s{fill:#ffcde5;}.t{fill:#985c7e;}</style></defs><g transform="translate(-4.261 0.017)"><ellipse class="a" cx="136.102" cy="21.702" rx="136.102" ry="21.702" transform="translate(411.605 542.569)"/><ellipse class="a" cx="29.806" cy="4.404" rx="29.806" ry="4.404" transform="translate(765.545 682.002)"/><ellipse class="a" cx="21.745" cy="2.206" rx="21.745" ry="2.206" transform="translate(717.771 644.341)"/><ellipse class="a" cx="19.736" cy="2.206" rx="19.736" ry="2.206" transform="translate(593.438 626.167)"/><ellipse class="a" cx="19.736" cy="2.206" rx="19.736" ry="2.206" transform="translate(781.675 601.383)"/><ellipse class="a" cx="29.806" cy="4.404" rx="29.806" ry="4.404" transform="translate(546.669 681.092)"/><ellipse class="a" cx="72" cy="10.722" rx="72" ry="10.722" transform="translate(621.544 516.798)"/><path class="a" d="M57.38,427.08c14.9,57.629,46.452,107.446,96.312,131.6,103.618,50.178,337.3,24.295,511.709-5.417C755.6,537.9,834.9,495.517,892.5,435.8Z" transform="translate(-42.938 -93.12)"/><path class="a" d="M975.934,100.752H880.241c-4.55,0-8.267-3.365-8.267-7.486s3.717-7.477,8.267-7.477h16.543c-4.55,0-8.276-3.374-8.276-7.486s3.726-7.477,8.276-7.477H884.962c-4.541,0-8.267-3.374-8.267-7.486s3.726-7.486,8.267-7.486h49.989c-11.083-4.662-24.037-7.975-38.957-9.709C759.763,30.28,711.139,40.787,693.986,51.553a201.56,201.56,0,0,1-70,27.763c-84.027,15.676-241.171,34.545-383.6-6.009C169.6,53.132,116.982,87.222,85.45,144.208h907.1c-1.193-16.569-4.73-31.858-11.246-45.241a8.688,8.688,0,0,1-5.374,1.786Z" transform="translate(-46.911 -38.06)"/><path class="a" d="M47.581,287A345.278,345.278,0,0,0,51.3,387.544L891.467,415.35a356.384,356.384,0,0,0,58.376-80.55Zm332.3,71.691H363.344c4.55,0,8.267,3.365,8.267,7.486s-3.717,7.477-8.267,7.477H267.65c-4.55,0-8.267-3.365-8.267-7.477s3.717-7.486,8.267-7.486h16.543c-4.55,0-8.276-3.365-8.276-7.486s3.726-7.477,8.276-7.477H272.371c-4.541,0-8.267-3.365-8.267-7.486s3.726-7.477,8.267-7.477h95.694c4.55,0,8.276,3.365,8.276,7.477s-3.726,7.486-8.276,7.486h11.813c4.541,0,8.267,3.365,8.267,7.477S384.428,358.691,379.878,358.691Z" transform="translate(-41.26 -73.294)"/><path class="a" d="M987.3,162.27,70.03,182.461c-11.16,25.934-18.586,55.286-21.96,85.7H971.228a325.507,325.507,0,0,0,13.323-54.616C987.3,195.656,988.406,178.349,987.3,162.27Zm-753,66.145H217.764c4.55,0,8.267,3.365,8.267,7.486s-3.717,7.477-8.267,7.477H122.07c-4.55,0-8.267-3.365-8.267-7.477s3.717-7.486,8.267-7.486h16.543c-4.55,0-8.276-3.365-8.276-7.477s3.726-7.486,8.276-7.486H126.792c-4.541,0-8.267-3.365-8.267-7.486s3.726-7.477,8.267-7.477h95.694c4.55,0,8.276,3.365,8.276,7.477s-3.726,7.486-8.276,7.486H234.3c4.541,0,8.267,3.365,8.267,7.486S238.848,228.415,234.3,228.415Z" transform="translate(-41.621 -55.642)"/><ellipse class="a" cx="17.59" cy="2.412" rx="17.59" ry="2.412" transform="translate(778.01 517.304)"/><ellipse class="a" cx="17.59" cy="2.412" rx="17.59" ry="2.412" transform="translate(845.382 524.138)"/><ellipse class="a" cx="17.59" cy="2.412" rx="17.59" ry="2.412" transform="translate(924.748 514.892)"/><ellipse class="a" cx="12.508" cy="1.717" rx="12.508" ry="1.717" transform="translate(823.5 544.286)"/><ellipse class="a" cx="12.508" cy="1.717" rx="12.508" ry="1.717" transform="translate(893.431 542.569)"/><path class="b" d="M1044.608,628.771s-24.664-80.868,3.863-113.267c21.342-24.226,45.568-21.324,56.419-18.328a20.037,20.037,0,0,1,12.937,10.731c3.794,8.19,3.108,21.462-23.668,36.974-44.829,25.952-47.62,61.561-47.62,61.561Z" transform="translate(-181.258 -102.762)"/><path class="c" d="M1102.306,510.86s-72.721,22.732-56.419,120.126" transform="translate(-182.503 -104.977)"/><path class="c" d="M1062.49,520.35s10.01,6.748,6.868,16.895" transform="translate(-185.19 -106.32)"/><path class="c" d="M1101.224,526.72s-6.121-6.224-13.564-2.79" transform="translate(-188.752 -106.68)"/><path class="c" d="M1067.769,563.49s-10.748-5.451-13.529,1.382" transform="translate(-184.022 -112.134)"/><path class="c" d="M1039,577.064s8.07-.635,8.215,3.219" transform="translate(-181.865 -114.341)"/><path class="b" d="M1045.08,642.054s28.9-58.78,36.828-57.518c3.769.609,5.511,4.292,6.293,8.044a23.7,23.7,0,0,1-1.571,14.311C1082.526,616.317,1071.521,634.182,1045.08,642.054Z" transform="translate(-182.726 -115.401)"/><path class="c" d="M1081.764,597.56s-30.321,43.979-36.185,45.911" transform="translate(-182.796 -117.247)"/><line class="c" x1="7.082" transform="translate(894.676 487.18)"/><line class="c" x1="11.091" y2="0.472" transform="translate(882.185 503.268)"/><line class="c" x2="1.202" y2="5.778" transform="translate(886.529 490.4)"/><line class="c" x2="0.206" y2="5.254" transform="translate(874.734 507.99)"/><path class="b" d="M1038.894,642.054s-28.888-58.78-36.828-57.518c-3.769.609-5.5,4.292-6.293,8.044a23.7,23.7,0,0,0,1.571,14.311C1001.447,616.317,1012.461,634.182,1038.894,642.054Z" transform="translate(-175.681 -115.401)"/><path class="c" d="M1003.43,597.56s30.33,43.979,36.185,45.911" transform="translate(-176.831 -117.247)"/><line class="c" x2="7.082" transform="translate(823.809 487.18)"/><line class="c" x2="11.091" y2="0.472" transform="translate(832.291 503.268)"/><line class="c" x1="1.202" y2="5.778" transform="translate(837.836 490.4)"/><line class="c" x1="0.215" y2="5.254" transform="translate(850.628 507.99)"/><path class="b" d="M1101.246,666.218a4.986,4.986,0,0,0,1.64-2.481,2.215,2.215,0,0,0-1.142-2.533c-1.056-.4-2.189.326-3.039,1.065s-1.837,1.588-2.953,1.425a4.489,4.489,0,0,0,1.391-4.206,1.718,1.718,0,0,0-.395-.859c-.584-.627-1.64-.361-2.344.129-2.232,1.571-2.859,4.6-2.867,7.331a14.208,14.208,0,0,1,0-3.022,3.09,3.09,0,0,0-1.133-2.67,3.474,3.474,0,0,0-1.717-.4,3.571,3.571,0,0,0-2.807.8,2.767,2.767,0,0,0,.112,3.434,10.821,10.821,0,0,0,2.9,2.326,6.429,6.429,0,0,1,2.078,1.974,2.578,2.578,0,0,1,.155.352h6.284a17.607,17.607,0,0,0,3.837-2.661Z" transform="translate(-188.422 -125.839)"/><path class="b" d="M973,638.69a5,5,0,0,0,1.64-2.481,2.2,2.2,0,0,0-1.15-2.524c-1.056-.4-2.18.326-3.039,1.064s-1.829,1.58-2.953,1.425a4.481,4.481,0,0,0,1.391-4.206,1.717,1.717,0,0,0-.386-.859c-.584-.627-1.648-.352-2.344.137-2.232,1.571-2.859,4.6-2.867,7.323a14.117,14.117,0,0,1-.043-3.013,3.1,3.1,0,0,0-1.133-2.67,3.323,3.323,0,0,0-1.717-.4,3.572,3.572,0,0,0-2.807.79,2.807,2.807,0,0,0,.111,3.434,10.8,10.8,0,0,0,2.9,2.318,6.55,6.55,0,0,1,2.078,1.983,1.874,1.874,0,0,1,.146.352h6.293a17.356,17.356,0,0,0,3.88-2.67Z" transform="translate(-170.268 -121.944)"/><path class="b" d="M1015.746,666.218a5.039,5.039,0,0,0,1.64-2.481,2.206,2.206,0,0,0-1.15-2.532c-1.056-.4-2.181.326-3.039,1.064s-1.829,1.588-2.953,1.425a4.473,4.473,0,0,0,1.391-4.207,1.614,1.614,0,0,0-.386-.858c-.584-.627-1.648-.361-2.344.129-2.232,1.571-2.859,4.6-2.867,7.331a14.2,14.2,0,0,1,0-3.022,3.116,3.116,0,0,0-1.133-2.67,3.5,3.5,0,0,0-1.717-.4,3.571,3.571,0,0,0-2.807.8,2.767,2.767,0,0,0,.112,3.434,10.826,10.826,0,0,0,2.9,2.326,6.43,6.43,0,0,1,2.078,1.974c.06.112.1.232.154.352h6.284a17.609,17.609,0,0,0,3.837-2.661Z" transform="translate(-176.321 -125.839)"/><path class="b" d="M1138.509,611.79s2.361,3.082-1.09,7.726-6.284,8.585-5.151,11.478c0,0,5.194-8.636,9.443-8.756S1143.162,616.984,1138.509,611.79Z" transform="translate(-195.029 -119.261)"/><path class="d" d="M1138.533,611.79a3.782,3.782,0,0,1,.481.961c4.129,4.85,6.327,9.375,2.361,9.495-3.7.1-8.13,6.713-9.194,8.379a2.785,2.785,0,0,0,.129.378s5.194-8.636,9.443-8.756S1143.186,616.984,1138.533,611.79Z" transform="translate(-195.053 -119.261)"/><path class="e" d="M1144.591,616.244c0,1.09-.12,1.966-.266,1.966s-.275-.858-.275-1.966.155-.575.3-.575S1144.591,615.162,1144.591,616.244Z" transform="translate(-196.732 -119.792)"/><path class="e" d="M1146.123,617.749c-.944.524-1.777.858-1.854.7s.644-.661,1.6-1.176.575-.146.653,0S1147.076,617.233,1146.123,617.749Z" transform="translate(-196.763 -120)"/><path class="b" d="M1124.2,611.79s-2.361,3.082,1.09,7.726,6.284,8.585,5.151,11.478c0,0-5.151-8.636-9.443-8.756S1119.551,616.984,1124.2,611.79Z" transform="translate(-193.171 -119.261)"/><path class="d" d="M1124.2,611.79a3.778,3.778,0,0,0-.481.961c-4.129,4.85-6.327,9.375-2.361,9.495,3.7.1,8.13,6.713,9.194,8.379a2.8,2.8,0,0,1-.129.378s-5.151-8.636-9.443-8.756S1119.549,616.984,1124.2,611.79Z" transform="translate(-193.169 -119.261)"/><path class="e" d="M1120,616.244c0,1.09.12,1.966.266,1.966s.275-.858.275-1.966-.155-.575-.3-.575S1120,615.162,1120,616.244Z" transform="translate(-193.329 -119.792)"/><path class="e" d="M1118.124,617.749c.953.524,1.786.858,1.854.7s-.635-.661-1.588-1.176-.575-.146-.652,0S1117.171,617.233,1118.124,617.749Z" transform="translate(-192.981 -120)"/><path class="f" d="M1120.85,633.113s6.593-.2,8.585-1.614,10.139-3.1,10.628-.858,9.9,11.28,2.464,11.34-17.29-1.159-19.273-2.369S1120.85,633.113,1120.85,633.113Z" transform="translate(-193.449 -121.775)"/><path class="g" d="M1142.647,641.8c-7.434.06-17.281-1.159-19.264-2.369-1.511-.919-2.112-4.215-2.309-5.743h-.223s.421,5.314,2.4,6.524,11.83,2.429,19.273,2.369c2.146,0,2.885-.781,2.85-1.914C1145.068,641.356,1144.252,641.785,1142.647,641.8Z" transform="translate(-193.449 -122.361)"/><path class="d" d="M197.77,649.1s1.64.592,1.975,1.717" transform="translate(-62.807 -124.542)"/><path class="d" d="M224.728,648.13s-1.176.5-1.1,2.575" transform="translate(-66.467 -124.404)"/><ellipse class="h" cx="0.764" cy="1.262" rx="0.764" ry="1.262" transform="translate(133.67 531.308) rotate(-30)"/><ellipse class="h" cx="1.262" cy="0.764" rx="1.262" ry="0.764" transform="translate(157.618 532.726) rotate(-60)"/><ellipse class="a" cx="31.24" cy="5.357" rx="31.24" ry="5.357" transform="translate(401.99 680.251)"/><path class="b" d="M101.92,792.87S58.412,815.345,80.887,841.8c0,0,2.112,5.786,8.233,5.34,0,0-1.219-2.223,3.434-4.009a22.833,22.833,0,0,0,4.7-2.5,11.064,11.064,0,0,0,4.206-5.623h0s8.9-11.907,2-33.935c0,0,.858-6.224.112-7.228l-5.288,7.245s5.468,3.674,6.1,9.057c0,0-5.692-9.04-6.928-8.018-.249.215-2.627,3.966-2.627,3.966s9.443,6.43,10.181,14.774c0,0-5.34-11.684-11.1-13.358L90.648,813.4s10.3,6.3,11.512,15.77c0,0-6.009-12.019-12.139-14.44L87.6,820.951s9.975,6.344,10.894,14.233c0,0-8.344-13.186-11.349-12.774,0,0-1.88,5.846-1.631,7.64,0,0,7.057,4.713,7.177,9.34,0,0-6.507-8.216-7.512-7.675,0,0-.412,8.259,1.588,12.56,0,0-3.434-6.129-2.876-12.56,0,0-3.434,2.919-4.172,6.722,0,0-1.88-4.55,4.292-8.722,0,0,.584-6.43,1.3-7.22,0,0-6.679,3.254-9.512,7.263,0,0,1.039-6.009,10.1-8.928l2.292-6.3s-9.048,3.837-11.847,7.22c0,0,2.009-5.923,12.559-8.765l3.125-5.795s-8.052,2.7-11.967,5.795c0,0,3.039-5.091,12.929-7.426l2.575-3.631s-5.846,2.086-7.469,2.842-1.966.369-1.966.369A21.136,21.136,0,0,1,96.6,800.382S102.323,793.265,101.92,792.87Z" transform="translate(345.252 -161.2)"/><ellipse class="a" cx="23.342" cy="4.009" rx="23.342" ry="4.009" transform="translate(510.484 639.696)"/><path class="b" d="M216.127,760s-32.493,16.783-15.7,36.571c0,0,1.571,4.292,6.147,3.983,0,0-.919-1.657,2.575-2.987a16.972,16.972,0,0,0,3.511-1.871,8.25,8.25,0,0,0,3.142-4.2h0s6.645-8.894,1.494-25.351c0,0,.661-4.653.086-5.4l-3.949,5.408s4.078,2.747,4.55,6.765c0,0-4.292-6.748-5.151-6.009-.189.154-1.966,2.962-1.966,2.962s7.082,4.8,7.606,11.031c0,0-3.983-8.722-8.293-9.975l-2.429,4.4s7.726,4.713,8.585,11.787c0,0-4.481-8.98-9.065-10.782l-1.811,4.644s7.452,4.73,8.138,10.628c0,0-6.233-9.855-8.482-9.538,0,0-1.4,4.361-1.21,5.7,0,0,5.262,3.52,5.357,6.979,0,0-4.859-6.138-5.606-5.735,0,0-.318,6.172,1.185,9.383a18.523,18.523,0,0,1-2.155-9.383,10.3,10.3,0,0,0-3.116,5.022s-1.4-3.434,3.211-6.516c0,0,.438-4.8.97-5.391,0,0-4.988,2.429-7.108,5.426,0,0,.781-4.464,7.537-6.67l1.717-4.713s-6.765,2.867-8.851,5.391c0,0,1.5-4.421,9.383-6.542l2.335-4.335s-6.009,2.026-8.945,4.335c0,0,2.275-3.8,9.666-5.546l1.9-2.713s-4.361,1.554-5.58,2.12-1.459.283-1.459.283a15.7,15.7,0,0,1,7.821-3.554S216.428,760.258,216.127,760Z" transform="translate(328.103 -156.548)"/><ellipse class="a" cx="13.04" cy="2.241" rx="13.04" ry="2.241" transform="translate(392.006 525.279)"/><path class="b" d="M62.268,645.33s-18.165,9.383-8.782,20.432a3.494,3.494,0,0,0,3.434,2.232s-.506-.936,1.442-1.717a9.263,9.263,0,0,0,1.957-1.047,4.567,4.567,0,0,0,1.717-2.344h0s3.717-4.971.858-14.165c0,0,.369-2.575.052-3.013L60.74,648.73a6.319,6.319,0,0,1,2.575,3.777s-2.378-3.769-2.893-3.34c-.1.086-1.1,1.648-1.1,1.648s3.958,2.687,4.249,6.164c0,0-2.223-4.876-4.627-5.571l-1.356,2.455s4.292,2.635,4.8,6.584c0,0-2.507-5.013-5.065-6.009l-1.013,2.575s4.164,2.653,4.55,5.941c0,0-3.485-5.5-4.739-5.331a13.461,13.461,0,0,0-.678,3.193s2.945,1.966,3,3.9c0,0-2.713-3.434-3.133-3.2,0,0-.172,3.434.661,5.237a10.473,10.473,0,0,1-1.2-5.237,5.787,5.787,0,0,0-1.717,2.8s-.781-1.9,1.794-3.64a13.133,13.133,0,0,1,.541-3.013,12.7,12.7,0,0,0-3.975,3.03s.438-2.49,4.215-3.726l.961-2.627s-3.777,1.605-4.945,3.013c0,0,.858-2.472,5.237-3.657l1.3-2.421a21.465,21.465,0,0,0-5,2.421s1.271-2.12,5.4-3.1l1.065-1.511s-2.438.858-3.116,1.176-.858.163-.858.163a8.825,8.825,0,0,1,4.378-1.992S62.432,645.493,62.268,645.33Z" transform="translate(348.598 -140.319)"/><path class="b" d="M941.435,127.78S917.827,108.2,960.888,76.71c0,0,21.376,40.88-7.263,54.719,0,0,.541-20.183-2.112-20.148S941.435,127.78,941.435,127.78Z" transform="translate(-167.143 -43.533)"/><path class="b" d="M895.082,148.167S853.4,152.021,864.624,80.09c0,0,60.093,18.886,45.748,59.853,0,0-18.938-20.011-21.462-17.418S895.082,148.167,895.082,148.167Z" transform="translate(-156.915 -44.011)"/><path class="b" d="M663.8,255.773s-41.224,7.254-35.875-65.373c0,0,61.406,13.924,50.47,55.929,0,0-20.5-18.4-22.81-15.607S663.8,255.773,663.8,255.773Z" transform="translate(-123.618 -59.623)"/><path class="b" d="M1028.049,146.243s39.653,13.392,45.37-59.183c0,0-62.8,4.473-58.376,47.645,0,0,23.05-15.083,24.9-11.976S1028.049,146.243,1028.049,146.243Z" transform="translate(-178.443 -44.997)"/><path class="b" d="M783.669,168.455s-39.55-13.684.343-74.575c0,0,46.933,41.971,16.981,73.391,0,0-8.988-26.037-12.362-24.715S783.669,168.455,783.669,168.455Z" transform="translate(-143.255 -45.963)"/><path class="b" d="M953.7,153.1s-2.335-22.26,36.2-16.732c0,0-9.7,32.236-31.695,24.853,0,0,10.568-10.259,9.169-11.589S953.7,153.1,953.7,153.1Z" transform="translate(-169.788 -51.85)"/><path class="b" d="M908.215,206.846s-2.344-22.26,36.193-16.732c0,0-9.692,32.236-31.695,24.9,0,0,10.568-10.3,9.169-11.589S908.215,206.846,908.215,206.846Z" transform="translate(-163.351 -59.458)"/><path class="b" d="M1002.6,215.074s-16.9-14.663,15.015-36.914c0,0,14.929,30.175-6.181,39.8,0,0,.721-14.706-1.219-14.723S1002.6,215.074,1002.6,215.074Z" transform="translate(-176.081 -57.891)"/><path class="b" d="M922.818,367.888s20.912-7.975,25.471,30.682c0,0-33.643-1.09-32.167-24.243,0,0,12.628,7.58,13.564,5.881S922.818,367.888,922.818,367.888Z" transform="translate(-164.468 -84.646)"/><path class="b" d="M925.113,316.3s-16.9-14.663,15.023-36.914c0,0,14.929,30.175-6.19,39.807,0,0,.721-14.714-1.21-14.731S925.113,316.3,925.113,316.3Z" transform="translate(-165.114 -72.217)"/><path class="b" d="M769.824,269.13s-20.286,9.443-27.574-28.8c0,0,33.643-1.3,33.8,21.908,0,0-13.135-6.67-13.942-4.91S769.824,269.13,769.824,269.13Z" transform="translate(-139.867 -66.687)"/><path class="b" d="M712.674,216.25s-20.294,9.443-27.574-28.8c0,0,33.643-1.3,33.8,21.917,0,0-13.135-6.67-13.942-4.91S712.674,216.25,712.674,216.25Z" transform="translate(-131.778 -59.203)"/><path class="b" d="M794.123,337.6s-22.32.858-14.225-37.249c0,0,31.5,11.873,22.638,33.317,0,0-9.512-11.246-10.946-9.941S794.123,337.6,794.123,337.6Z" transform="translate(-144.945 -75.184)"/><path class="b" d="M786.4,373.828s3.975,22.02-34.863,19.359c0,0,7.288-32.871,29.772-27.128,0,0-9.787,11.006-8.284,12.233S786.4,373.828,786.4,373.828Z" transform="translate(-141.181 -84.388)"/><path class="b" d="M724.907,352.83s-8.473,20.715-39.807-2.4c0,0,23.805-23.805,39.687-6.868,0,0-14.165,4.026-13.564,5.863S724.907,352.83,724.907,352.83Z" transform="translate(-131.778 -80.439)"/><path class="b" d="M935.735,252.38s-23.608-19.573,19.453-51.07c0,0,21.376,40.889-7.263,54.728,0,0,.541-20.183-2.112-20.148S935.735,252.38,935.735,252.38Z" transform="translate(-166.336 -61.167)"/><path class="b" d="M1049.907,206.55s-17.255-25.359,32.854-43.67c0,0,9.194,45.216-22.157,50.564,0,0,6.112-19.238,3.554-19.942S1049.907,206.55,1049.907,206.55Z" transform="translate(-183.002 -55.728)"/><path class="b" d="M1046.175,298.24s-23.608-19.573,19.453-51.07c0,0,21.376,40.88-7.263,54.719,0,0,.541-20.174-2.112-20.14S1046.175,298.24,1046.175,298.24Z" transform="translate(-181.967 -67.657)"/><path class="b" d="M998.13,348.9s9.375-29.188,54.633-.961c0,0-29.987,35.06-53.483,13.633,0,0,18.886-7.014,17.908-9.443S998.13,348.9,998.13,348.9Z" transform="translate(-176.081 -80.179)"/><path class="b" d="M1068.58,324.184s9.375-29.188,54.633-.961c0,0-29.987,35.06-53.491,13.633,0,0,18.886-7.014,17.916-9.443S1068.58,324.184,1068.58,324.184Z" transform="translate(-186.051 -76.68)"/><path class="b" d="M839.962,188.694s-30.192-5.4-8.25-54.024c0,0,38.751,25.042,20.655,51.191,0,0-9.443-17.822-11.77-16.483S839.962,188.694,839.962,188.694Z" transform="translate(-151.397 -51.735)"/><path class="b" d="M754.776,202.757s-30.356,4.49-24.982-48.607c0,0,44.7,11.443,35.841,41.988,0,0-14.646-13.89-16.4-11.9S754.776,202.757,754.776,202.757Z" transform="translate(-138.014 -54.492)"/><path class="b" d="M732.848,294.425s-30.347,4.464-24.973-48.615c0,0,44.7,11.443,35.841,41.988,0,0-14.646-13.89-16.4-11.9S732.848,294.425,732.848,294.425Z" transform="translate(-134.911 -67.465)"/><path class="b" d="M692.728,324.407s-26.175,15.976-41.988-34.974c0,0,45.611-6.954,49.405,24.63,0,0-18.886-7.057-19.745-4.541S692.728,324.407,692.728,324.407Z" transform="translate(-126.915 -73.547)"/><path class="b" d="M985.035,293.38s-23.617-19.582,19.444-51.07c0,0,21.376,40.88-7.254,54.719,0,0,.532-20.183-2.12-20.148S985.035,293.38,985.035,293.38Z" transform="translate(-173.313 -66.97)"/><path class="i" d="M778.107,569.018s56.23-2.369,62.153-112.46-52.684-128.771-52.684-128.771-18.569-10.37-26.8-10.8-35.747,2.163-35.747,2.163l30.338-5.846S712.683,297.055,699.9,295.75l46.143,9.752s.652-25.565-10.4-34.013c0,0,9.443-.7,14.44,17.71a35.2,35.2,0,0,0,21.067,23.642c17.118,6.679,40.777,17.212,46.169,26.243,0,0,9.967,10.4,8.456-16.68s-8.671-50.272-11.272-50.925c0,0-20.363-21.659-48.933-22.956,0,0,16.68-6.722,44.846,14.294,0,0,2.378-10.611-8.233-23.179s-27.085-39-45.07-41.816c0,0,25.136-1.52,45.07,30.982,0,0,7.366,4.765,8.018-7.366s4.979-27.3,4.979-27.3,6.069,27.952-6.713,40.511c0,0,24.475,31.849,23.393,67.6,0,0,7.589,16.242,10.4-2.824,0,0,1.631-26.252,4.885-48.529a65.93,65.93,0,0,0-13.83-50.873c-5.417-6.739-9.186-13.289-7.091-16.723l28.381,33.8s23.831-55.243,41.207-67.158,19.5-14.517,19.5-14.517l-27.952,32.716,35.1-12.353L887.27,172.061s-16.251,13.212-25.565,49.4-10.181,58.685-10.181,58.685S901.572,240.5,911.1,241.795l-32.39,24.527a77.185,77.185,0,0,0-30.441,56.316h0s62.617-16.036,77.786-19.067l28.6-29.248-21.668,27.729,44.641-.644,25.565-18.2s-20.148,16.895-18.2,17.976,31.42,2.387,31.42,2.387-74.97-.438-83.2,4.979-26.613,7.366-26.613,7.366l53.079,8.018-63.261-4.55S848.5,328.054,845.926,343c0,0,9.752,25.445,16.251,35.532,5.391,8.387,16.242,35.532,18.414,59.363s5.151,60.445-3.039,82.765-11.263,35.094-7.143,41.816,8.01,15.384-5.417,17.109-72.369-.859-72.369-.859S774.6,582.273,778.107,569.018Z" transform="translate(-133.873 -51.843)"/><path class="d" d="M827.65,626.227a28.329,28.329,0,0,1,19.084-2.344c11.04,2.387,27.935,1.116,29.48.858" transform="translate(-151.953 -120.873)"/><path class="d" d="M868.416,475.6s2.687,42.348-2.086,50.7Z" transform="translate(-157.427 -99.987)"/><path class="d" d="M879.269,534.66s-3.434,39.67-5.82,47.422S879.269,534.66,879.269,534.66Z" transform="translate(-158.373 -108.345)"/><path class="d" d="M884.22,421.06c2.43.858,12.877,22.071,10.782,28.33S884.22,421.06,884.22,421.06Z" transform="translate(-159.959 -92.268)"/><path class="d" d="M853.38,395.45c1.133.515,6.009,12.714,5.022,16.311S853.38,395.45,853.38,395.45Z" transform="translate(-155.595 -88.643)"/><path class="d" d="M905.766,478.3c-1.2,12.293-1.854,20.346-1.09,30.192a116.59,116.59,0,0,1-.326,22.964" transform="translate(-162.808 -100.369)"/><path class="d" d="M753.78,311.49a9.9,9.9,0,0,1,2.035,6.233c.069,2.232-.215,4.464-.069,6.688s1.262,5.091,3.588,5.408" transform="translate(-141.498 -76.76)"/><path class="d" d="M800.38,226.08a57.073,57.073,0,0,1,7.846,9.735,23.326,23.326,0,0,0,2.224,3.168,36.235,36.235,0,0,0,4.292,3.52,20.269,20.269,0,0,1,6.868,10.748" transform="translate(-148.094 -64.673)"/><path class="d" d="M929.719,152.34a14.043,14.043,0,0,1-2.781,3.717c-.979.936-2.1,1.717-2.987,2.747a22.729,22.729,0,0,0-1.923,2.824A76.808,76.808,0,0,1,914,171.793" transform="translate(-164.174 -54.236)"/><path class="d" d="M871.21,225.35c1.871,1.168,2.361,3.666,2.318,5.863s-.421,4.49.4,6.533c.369.936.97,1.717,1.365,2.678a12.4,12.4,0,0,1,.635,5.091q0,2.987-.172,6.009c-.1,2.4-.335,5-1.966,6.765" transform="translate(-158.118 -64.569)"/><path class="j" d="M887.243,297.75a25.386,25.386,0,0,0-4.868,3.348,8.7,8.7,0,0,0-2.824,5.065c-.1.858-.052,1.717-.232,2.515a8.1,8.1,0,0,1-1.665,3.048,42.782,42.782,0,0,1-4.1,4.541" transform="translate(-158.449 -74.816)"/><path class="d" d="M873,362.379a30.119,30.119,0,0,1,3.915-2.73,16.569,16.569,0,0,1,4.035-1.768,42.865,42.865,0,0,1,6.653-.721c2.224-.232,4.55-.858,6.069-2.49" transform="translate(-158.371 -82.872)"/><path class="d" d="M972.971,331.76c-2.636.077-5.374.172-7.726,1.374-1.193.618-2.232,1.5-3.434,2.155a10.387,10.387,0,0,1-4.971,1.3" transform="translate(-170.237 -79.629)"/><path class="d" d="M933.06,344.4a1.468,1.468,0,0,1,1.889.446c.472.532.73,1.236,1.219,1.76.961,1.047,2.576,1.159,3.949,1.21" transform="translate(-166.871 -81.394)"/><path class="d" d="M913.844,279.21l-2.575,1.322a44.767,44.767,0,0,0-7.469,4.558" transform="translate(-162.73 -72.192)"/><path class="d" d="M880.731,308.051c-1.665-.395-3.1,1.382-3.434,3.065s.052,3.434-.429,5.108a9.443,9.443,0,0,1-2.5,3.743" transform="translate(-158.565 -76.266)"/><path class="d" d="M848.873,311.66c-1.519,4.524,1.717,9.443.755,14.139-.283,1.425-.944,2.756-1.279,4.164-.858,3.726.627,7.683,3.065,10.636" transform="translate(-154.848 -76.785)"/><path class="k" d="M778.424,402.55l-9.684,20.6s-1.425,3.863-2.344,4.584-4.988,12.929-4.988,12.929l-10.388,16.01h0l-.7,1.09-4.078-1.125-2.85-10.662.172-3.09v-.395s6.421-6.713,7.846-7.228c0,0,1.116.129,3.254-5.074s4.078-6.327,4.078-6.327l1.116-3.777,12.019-19.144s10.078-14.448,12.826-8.035S778.424,402.55,778.424,402.55Z" transform="translate(-140.028 -88.051)"/><path class="l" d="M643.956,429.072a14.147,14.147,0,0,0-1.125,3.434c-.06.3-.129.618-.206.944-.661,3.434-1.125,7.726-1.348,10.25-.112,1.262-.172,2.069-.172,2.069s-24.312-1.631-20.1-5.7a9.049,9.049,0,0,0,2.224-4.043c.12-.429.232-.858.318-1.322a22.612,22.612,0,0,0,.386-3.073v-.79a31.954,31.954,0,0,0-.24-5.031s7.907-.052,13.864.635C641.6,426.909,644.72,427.69,643.956,429.072Z" transform="translate(-122.638 -92.94)"/><path class="k" d="M732.812,573.689a2.232,2.232,0,0,1-.326.987c-1.116,1.631-7.434,34.923-7.434,34.923.507,2.249-.91,6.73-1.829,8.774s-2.962,12.62-2.962,12.62-.507,22.818-1.82,26.372.421,11.2.421,11.2c-.129,3.511,1.983,7.228,3.236,9.117.086.12.172.24.24.352.412.584.678.919.678.919a5.443,5.443,0,0,0,1.425,1.76l.283.223a16.313,16.313,0,0,0,5.709,2.4l.2.043c.815.18,1.348.258,1.348.258l.524,2.79-5.4,1.116-10.3.713s-12.122.919-9.375-4.481a8.983,8.983,0,0,0,.5-1.142h0c.1-.258.2-.532.283-.807,1.648-5.151.532-11.495.532-11.495L706.4,651.913c-3.863-17.109,3.048-36.159,3.048-36.159s-.6-1.52.721-5.391.017-12.353.017-12.353-.7-10.9-1.622-16.311a32.189,32.189,0,0,1-.369-6.868,33.347,33.347,0,0,1,.369-4.018l23.179-3.073S733.086,571.543,732.812,573.689Z" transform="translate(-134.626 -113.027)"/><path class="d" d="M732.8,704.489l-5.4,1.116-10.3.713s-12.122.919-9.375-4.481a8.991,8.991,0,0,0,.5-1.142h0c.1-.258.2-.532.283-.807a18.833,18.833,0,0,1,6.138,1.236c3.434,1.331,6.009-2.138,6.009-2.138l1.717-3.2.24-.464c.412.584.678.919.678.919A5.6,5.6,0,0,0,725,698.222l-.283.592-1.631,3.434s2.086.215,4.936.67a2.206,2.206,0,0,0,2.687-1.468l.2.043c.816.18,1.348.258,1.348.258Z" transform="translate(-134.923 -131.083)"/><path class="m" d="M737.625,707.111c-.4,1.837-11.761,2.4-11.761,2.4s-6.31-.61-8.087.858-6.988,1.116-7.185,1.116-2.953-.1-4.026-5.031,1.4-5.649,1.519-5.692h0A18.594,18.594,0,0,1,714.506,702c3.434,1.331,6.009-2.138,6.009-2.138l1.923-3.666c.412.584.678.919.678.919a5.6,5.6,0,0,0,1.717,1.983l-1.914,4.018s2.086.215,4.936.67a2.361,2.361,0,0,0,2.884-2.241,2.56,2.56,0,0,0,0-.309s1.777.515,3.966,1.125a4.086,4.086,0,0,1,2.919,4.747Z" transform="translate(-134.778 -131.208)"/><path class="k" d="M763.492,597.521c-.266,1.631-.541,5.846-.541,5.846.953,3.528-1.494,11.907-1.494,11.907l-1.219,4.79c.541,6.112-3.357,21.041-3.357,21.041s-2.575,13.856-3.975,19.831a16.491,16.491,0,0,0,.7,9.993c.069.163.112.24.112.24a2.364,2.364,0,0,0,.077.335c.043.163.094.326.146.481a7.143,7.143,0,0,0,1.339,2.275,6.671,6.671,0,0,0,.73.747h0a14.69,14.69,0,0,0,4.292,2.661h0l.678.266a18.024,18.024,0,0,0,2.163.678h0l.24.06-.541,3.2-7.194-1.846-9.641-3.125-4.739-2.713.146-.764v-.077a4.109,4.109,0,0,1,.137-.747c.738-4.207,2.575-15.959,1.665-24.621-1.15-10.722,3.314-25.522,4.4-29.051a17.64,17.64,0,0,0,.816-6.25c-1.769-2.575-2.172-12.877-2.172-12.877s-3.262-6.653-5.958-13.736a35.77,35.77,0,0,1-1.94-7.134,24.9,24.9,0,0,1-.395-5.22s21.865-19.959,24.269-.635c.086.652.155,1.279.232,1.889C764.719,592.7,763.749,595.95,763.492,597.521Z" transform="translate(-139.26 -112.59)"/><path class="d" d="M764.054,696.286l-.541,3.2-7.194-1.846-9.641-3.125L741.94,691.8l.146-.764v-.077a4.1,4.1,0,0,1,.137-.747l.678-.069h.052a8.97,8.97,0,0,1,4.035.549c1.571.584,3.623,1.262,4.052.979a5.1,5.1,0,0,1,2.3-.412l1-2.189.146-.335a7.145,7.145,0,0,0,1.339,2.275,7.464,7.464,0,0,0,.773.79v.773l-.052,1.1a14.132,14.132,0,0,0,3.434,1.6,2.016,2.016,0,0,0,.961,0h0l.678.266a17.993,17.993,0,0,0,2.163.678h0Z" transform="translate(-139.823 -130.152)"/><path class="m" d="M760.334,703.245c-2.009-.575-6.868-1.5-7.632-.781s-7.5,0-7.5,0a4.1,4.1,0,0,1-3.434-2.035c-1.391-2.18-.266-9.2-.266-9.2l.5-.052.859-.077h.052a8.972,8.972,0,0,1,4.035.549c1.571.584,3.623,1.262,4.052.979a4.978,4.978,0,0,1,2.3-.412l1.15-2.524a7.142,7.142,0,0,0,1.339,2.275,7.468,7.468,0,0,0,.773.79l-.094,1.871a14.129,14.129,0,0,0,3.434,1.6,1.382,1.382,0,0,0,1.657-.532,1.246,1.246,0,0,0,.129-.275h0a11.678,11.678,0,0,0,2.842.944h0c2.292-.129,4.516.858,5.537,3.992S762.334,703.812,760.334,703.245Z" transform="translate(-139.7 -130.286)"/><path class="d" d="M733.3,573.692l-1.245.378a18.3,18.3,0,0,1-3,.635c-6.43.858-17.015.361-20.38.146a33.357,33.357,0,0,1,.369-4.018l23.179-3.073S733.576,571.546,733.3,573.692Z" transform="translate(-135.116 -113.03)"/><path class="m" d="M753.269,562.839s-8.525,1.313-15.452,2.833c-2.309.507-4.456,1.03-6.009,1.545a17.44,17.44,0,0,1-3,.635c-7.726,1.082-21.462.086-21.462.086-3.76-12.225,4.584-27.6,4.584-27.6-.2-1.228,1.717-4.988,1.717-4.988v-.12l1.185-4.361H746.5l.386,1.871.807,3.812,4.971,23.608Z" transform="translate(-134.789 -107.809)"/><path class="d" d="M762.619,575.029l-.189.086-3.709,1.648c-4.009,1.846-16.011,2.2-20.208,2.232a24.9,24.9,0,0,1-.395-5.219s21.865-19.959,24.269-.635C762.473,573.793,762.542,574.4,762.619,575.029Z" transform="translate(-139.28 -112.599)"/><path class="m" d="M759.949,568.358l-.773.343-3.709,1.648c-4.078,1.88-16.466,2.215-20.44,2.232h-1.039c-1.837-.06-3.666-1.777-3.666-2.224,0-.249-.189-1.451-.352-2.49l-.258-1.545s-8.147-3.528-12.319-6.378c-3.116-2.12-2.326-17.169-1.717-24.733.206-2.575.395-4.292.395-4.292l32.055,1.871,4.5.266,2.575.567.687.146s1.837,13.444,2.756,14.594.309,4.885.2,7.031a13.042,13.042,0,0,1-.3,2.747s1.322,3.769,1.013,5.881a11.76,11.76,0,0,0,.395,4.335Z" transform="translate(-136.026 -107.816)"/><path class="l" d="M597.721,551.8c-8.284-.275-2.181-17.513-1.228-19.848s-1.417-7.992-1.417-7.992-2.79-16.431-2.79-17.513a44.026,44.026,0,0,0-.944-6.653,11.048,11.048,0,0,1,1.082-6.516c.953-1.494.858-7.469.858-7.469v-7.726l1.837-2.447,4.73,4.464,1.313,1.236,2.3,8.653-.815,12.4-.455,12.07,2.85,16.7S606.005,552.07,597.721,551.8Z" transform="translate(-118.494 -99.992)"/><path class="d" d="M559.367,444.086l-7.057-2.919v-1.15l1.837-2.447,4.73,4.464Z" transform="translate(-77.564 -61.931)"/><path class="n" d="M597.373,462.66a32.563,32.563,0,0,0-1.957,6.919,31.087,31.087,0,0,1-1.846,6.653l7.872,3.262Z" transform="translate(-118.824 -98.155)"/><path class="o" d="M597.373,462.66a32.563,32.563,0,0,0-1.957,6.919,31.087,31.087,0,0,1-1.846,6.653l7.872,3.262Z" transform="translate(-118.824 -98.155)"/><path class="l" d="M666.346,653.127l-.687,1.382s-.713,4.61-.713,4.713-2.035,3.185-2.035,3.185l-5.151,1.1-2.172-.266a29.7,29.7,0,0,0-.584-3.76c-.077-.352-.163-.713-.258-1.073a28.416,28.416,0,0,0-3.58-8.113s-3.794-9.366-5.151-10.585-6.524-13.581-6.009-16.568c.292-1.64.06-7.125-.215-11.7-.215-3.734-.464-6.868-.464-6.868l12.877-7.632,1.5,2.369.858,1.408v.876a23.91,23.91,0,0,1-1.15,5.64s-.97,6.928,0,8.147,4.035,17.556,4.713,25.11a2.53,2.53,0,0,0,.06.678c.266,3.434,2.421,6.567,4.576,8.834h0l.429.438a30.369,30.369,0,0,0,3.151,2.687Z" transform="translate(-125.301 -117.16)"/><path class="d" d="M658.2,671.938l2.172.266,5.151-1.1s2.035-3.082,2.035-3.185.652-4.713.652-4.713l.652-1.382.077-.172a29.289,29.289,0,0,1-3.528-2.9h0l-.352-.352s.73,4.49-3.176,6.5c-1.889.97-3.434,1.717-4.533,2.232Z" transform="translate(-127.851 -125.858)"/><path class="p" d="M669.83,662.606l-.721,1.6s-.713,4.61-.713,4.713-2.035,3.185-2.035,3.185l-5.151,1.1-2.945-.352a17.942,17.942,0,0,0-.249-2.455c-.094-.618-.215-1.3-.378-2.035,1.09-.506,2.85-1.348,5.091-2.5,3.906-2,3.168-6.49,3.168-6.49a28.832,28.832,0,0,0,2.687,2.378C669.109,662.126,669.573,662.426,669.83,662.606Z" transform="translate(-127.892 -125.995)"/><path class="d" d="M669.893,663l-.721,1.6s-.713,4.61-.713,4.713-2.035,3.185-2.035,3.185l-5.151,1.1-2.945-.352a17.943,17.943,0,0,0-.249-2.455,9.69,9.69,0,0,1,1.863.258s7,1.494,7.331-4.043c.2-3.142.859-4.378,1.374-4.859C669.172,662.518,669.635,662.818,669.893,663Z" transform="translate(-127.954 -126.387)"/><path class="q" d="M669.121,662.069s-1.717-.386-2.086,5.151-7.331,4.043-7.331,4.043-3.434-.858-3.434.575a13.313,13.313,0,0,0,.919,3.837s.2,3.288.858,4.069.232,3.7.232,3.7.275,2.172,5.675,0c0,0,4.825-.987,8.825-6.988.129-.206-.481-.858,3.022-2.069s13.5-9.306,12.723-13.246a3.322,3.322,0,0,0-2.369-2.816,4.035,4.035,0,0,0-3.125.421,26.707,26.707,0,0,1-2.919,1.348,14.33,14.33,0,0,1-4.172,1,15.39,15.39,0,0,0-3.236.618A7.087,7.087,0,0,1,669.121,662.069Z" transform="translate(-127.698 -125.827)"/><path class="l" d="M619.159,617.49a9.8,9.8,0,0,0-1.966,2.266c-1.975,3.013-3.159,7.228-4.5,9.04-1.717,2.352-2.2,6.928-2.2,6.928-.455,3-6.816,19.049-8.585,21.9s-4.121,10.585-4.121,10.585c-1.468,1.846-1.382,4.576-1.228,5.88a3,3,0,0,0,.069.524l.043.215-.043.077-2.352,4-7.486-1.039L583,675.231a12.959,12.959,0,0,0,.859-1.6c2.069-4.619,3.545-12.877,3.545-12.877s2.078-9.443,1.923-11.607a87.917,87.917,0,0,1,.618-8.962s5.855-18.028,7.726-20.981a8.225,8.225,0,0,0,1.416-3.863,3.186,3.186,0,0,0,0-.858l2.532-2.515S622.421,614.9,619.159,617.49Z" transform="translate(-117.328 -119.287)"/><path class="d" d="M596.736,684.159a5.76,5.76,0,0,1-.043.6v.292l-2.352,4-7.486-1.039L583,685.378a12.959,12.959,0,0,0,.859-1.6c1.88-.532,6.19.987,6.19.987s4.653.858,6.61-.532Z" transform="translate(-117.328 -129.434)"/><path class="p" d="M594.431,694.981l-7.58,1.846-6.971-5.151.352-2.9a5.152,5.152,0,0,0,1.279-1.167,4.525,4.525,0,0,0,1.013-2.095c.4-2.129,7.031.206,7.031.206s4.842.919,6.722-.61a11.718,11.718,0,0,0,.361,4.189,3.091,3.091,0,0,0,1.116,1.665C599.676,692.286,594.431,694.981,594.431,694.981Z" transform="translate(-116.887 -129.568)"/><path class="d" d="M594.431,695.471l-7.58,1.846-6.971-5.151.352-2.9a5.152,5.152,0,0,0,1.279-1.167,14.8,14.8,0,0,1,1.528,0c1.168.1,3.915,5.1,3.915,5.1,6.868.455,8.945-1.794,9.684-3.434a3.091,3.091,0,0,0,1.116,1.665C599.676,692.775,594.431,695.471,594.431,695.471Z" transform="translate(-116.887 -130.058)"/><path class="q" d="M585.83,694.152s-2.747-5-3.915-5.1a28.019,28.019,0,0,0-2.953,0s-3.056,7.237-4.181,7.9S572,701.02,572,701.02s8.061,7.795,15.873,6.318a16.13,16.13,0,0,1,7.142,1.777c3.614,1.889,18.68.463,20.518-2.85,1.374-2.481,1.914-4.292.713-5.606a3.236,3.236,0,0,0-2.842-.961c-1.9.257-6.147.2-9.89-4.378,0,0-6.868-6.3-7.434-6.31S596.578,694.9,585.83,694.152Z" transform="translate(-115.771 -130.19)"/><path class="d" d="M654.738,601.559l-.052.06c-.464.515-3.794,4.155-4.79,4.421A47.223,47.223,0,0,0,645,608.2s-2.035,2.721-3.666,2.85a6.474,6.474,0,0,0-1.434.386c-.215-3.734-.464-6.868-.464-6.868l12.877-7.632,1.5,2.369c.343.962.721,1.837.858,2.12Z" transform="translate(-125.316 -117.16)"/><path class="p" d="M602.212,540.827s-5.022,6.542,0,15.229a51.164,51.164,0,0,0,10.3,13.031l17.109,35.438s4.481-2.447,6.112-2.575,3.666-2.85,3.666-2.85a49.013,49.013,0,0,1,4.885-2.181c1.09-.266,4.85-4.473,4.85-4.473s-1.863-4.078-1.451-5.151-1.228-3.8-1.228-3.8a22.571,22.571,0,0,1-1.082-4.215c0-1.082-1.768-3.666-1.768-3.666s-1.76-2.713-1.76-4.207-2.575-7.331-2.575-7.331l-.678-25.754Z" transform="translate(-119.731 -108.863)"/><path class="o" d="M649.157,592.438s-3.76,4.2-4.842,4.481a47.2,47.2,0,0,0-4.893,2.163s-2.035,2.721-3.666,2.85a13.1,13.1,0,0,0-3.339,1.2c-1.459.67-2.764,1.382-2.764,1.382l-17.109-35.438a37.471,37.471,0,0,1-4.155-4.292,58.946,58.946,0,0,1-6.172-8.722,14.7,14.7,0,0,1-1.94-10.568,12.243,12.243,0,0,1,1.94-4.661l12.173-.859,24.218-1.717.206,7.623.472,18.174s.4.91.858,2.1a23.13,23.13,0,0,1,1.717,5.228c0,1.494,1.76,4.207,1.76,4.207s1.768,2.575,1.768,3.666a22.586,22.586,0,0,0,1.082,4.215s1.631,2.713,1.219,3.794S649.157,592.438,649.157,592.438Z" transform="translate(-119.735 -108.855)"/><path class="d" d="M621.8,617.493a9.8,9.8,0,0,0-1.966,2.266c-7.383.532-15.968-3.331-18.2-4.4a3.188,3.188,0,0,0,0-.858l2.532-2.515S625.058,614.9,621.8,617.493Z" transform="translate(-119.965 -119.29)"/><path class="p" d="M643.5,548.425s-1.09,3.794-1.494,5.426-1.219,9.641-1.219,9.641l-.472,2.241-7.726,36.974-1.717,8.035c-2.987,1.631-10.456-2.721-10.456-2.721-8.688.961-19.419-4.61-19.419-4.61s1.768-5.7,1.356-8.585,2.447-5.151,2.447-5.151c-.678-2.575,1.76-13.847,1.76-13.847s.549-4.207,2.575-5.3-.266-2.713-.859-3.666a4.15,4.15,0,0,1,.2-2.49,19.01,19.01,0,0,1,.618-1.854c-5.151-5.151-6.009-13.263-6.009-17.753a29.471,29.471,0,0,1,.146-3.288l11.22-1.957,24.492-4.292,2.49,7.726h0l.627,1.932Z" transform="translate(-119.876 -108.426)"/><path class="d" d="M644.486,429.072a14.147,14.147,0,0,0-1.125,3.434c-.06.3-.129.618-.206.944-2.361,1.537-3.82,1.545-6.868,1.545-1.039,0-1.622-1.992-2.575-2.2,0,0-1.477-5.331-1.9-.858-2.842-.592-5.3,1.631-7.314-.309h0v-.79a31.947,31.947,0,0,0-.24-5.031s7.907-.052,13.864.635C642.125,426.909,645.25,427.69,644.486,429.072Z" transform="translate(-123.168 -92.94)"/><path class="l" d="M649.362,416.506a15.135,15.135,0,0,1-15.126,15.126,14.856,14.856,0,0,1-3.048-.309h0a15.126,15.126,0,1,1,18.174-14.817Z" transform="translate(-122.439 -89.482)"/><path class="d" d="M641.278,445.385c-.112,1.262-.172,2.069-.172,2.069s-24.312-1.631-20.1-5.7a9.049,9.049,0,0,0,2.224-4.043l10.542,1.717s2.979,2.318,5.3,4.481A8.982,8.982,0,0,0,641.278,445.385Z" transform="translate(-122.638 -94.624)"/><path class="d" d="M642.042,545.7a7.9,7.9,0,0,1-3.185-.249,6.081,6.081,0,0,1-1.3-.567c-2.034-1.219-8.816.275-8.816.275s-18.474,1.228-19.29,0c-.464-.7-3.709-.592-6.387-.378-1.082.086-2.077.189-2.747.266a12.242,12.242,0,0,1,1.94-4.661l12.173-.858,24.492-4.292,2.49,7.726h0C641.7,544.529,642.042,545.7,642.042,545.7Z" transform="translate(-119.78 -108.427)"/><path class="n" d="M630.3,440.312l-13.255-2.172a3.915,3.915,0,0,1-2.5,2.172c-1.768.412-9.641,4.481-13.169,9.375l-3.528,4.885s-2.859,3.528-1.906,6.378,2.035,12.5,2.035,12.5l1.365,10.722s2.575,7.726,1.76,11.16.412,17.65.412,17.65l-2.721,17.65s9.237-1.219,10.053,0,19.281,0,19.281,0,6.782-1.494,8.825-.275a7.28,7.28,0,0,0,4.473.859s-1.622-5.563-.678-8.688.678-8.825.678-8.825,1.365-8.284.687-9.778,1.494-6.919,1.494-6.919l7.194-37.884s-.858-6.79-4.713-9.1-8.19-2.987-10.5-5.151S630.3,440.312,630.3,440.312Z" transform="translate(-119.133 -94.685)"/><path class="l" d="M643.07,483.655v4.481L647.3,499.4l1.52,10.456s2.713,7.469,2.713,10.053,6.61,15.109,6.61,15.109,1.811,4.215.91,5.022-8.782,18.7,1.125,18.157,6.791-19.281,6.791-19.281l-1.356-8.147s-1.906-20.363-1.906-21.857c0,0-2.438-8.7-2.713-10.594s-2.035-11.538-2.035-11.538l-1.494-6.25Z" transform="translate(-125.83 -100.684)"/><path class="d" d="M593.13,462.56l-14.766,8.447-4.584,6.928,6.1-6.215Z" transform="translate(-80.603 -65.468)"/><path class="d" d="M629,519.48s-6.722,4.378-9.881,4.378-10.49,7.537-10.49,7.537,10.388-6.713,11.16-6.516S629,519.48,629,519.48Z" transform="translate(-120.956 -106.197)"/><path class="d" d="M611.493,522.21s-6.31,5.7-4.687,6.31,10.087-6.31,10.087-6.31Z" transform="translate(-120.66 -106.583)"/><path class="d" d="M644.185,498.48S639.3,505.1,640.622,505s5.091-3.863,5.091-3.863Z" transform="translate(-125.451 -103.225)"/><path class="d" d="M644.8,506.07s-5.3,6.009-5.091,7.537S644.8,506.07,644.8,506.07Z" transform="translate(-125.353 -104.299)"/><path class="d" d="M646.79,509.57s-3.571,6.37-2.043,7.726S646.79,509.57,646.79,509.57Z" transform="translate(-126.013 -104.794)"/><path class="d" d="M641.615,490.53s-2.653,4.481-.713,4.79,2.12,0,2.12,0Z" transform="translate(-125.423 -102.1)"/><path class="d" d="M642.057,471.44a47.038,47.038,0,0,1-2.713,7.992,37.761,37.761,0,0,1-1.065-4.009A27.471,27.471,0,0,1,642.057,471.44Z" transform="translate(-125.152 -99.398)"/><path class="d" d="M647.423,409.055a6.49,6.49,0,0,1-1.022,1.58,11.6,11.6,0,0,0-1.846,2.112c-.567,1.082-.464,2.387-.661,3.606s-.961,2.575-2.181,2.575a4.86,4.86,0,0,1-1.794-.532,1.811,1.811,0,0,0-1.786.052,1.975,1.975,0,0,0-.567,1.348,17.884,17.884,0,0,0-.18,3.176,10.316,10.316,0,0,0,.077,1.262c.129,1.365.395,2.824-.249,4.043a4.824,4.824,0,0,1-2.507,2.009,14.928,14.928,0,0,1-3.52.987h0a39,39,0,0,1-6.945.232,1.716,1.716,0,0,1-.618-.1.859.859,0,0,1-.266-.172,22.487,22.487,0,0,0,.412-3.863,15.126,15.126,0,1,1,23.659-18.32Z" transform="translate(-122.439 -89.474)"/><path class="r" d="M640.022,395.367c-1.391-.137-2.7.6-4.061.9-2.816.627-5.7-.661-8.585-.652a15.83,15.83,0,0,0-7.057,2.112,16.647,16.647,0,0,0-4.713,3.3,7.632,7.632,0,0,0-2.241,5.151c0,1.116.326,2.292-.1,3.331a10.745,10.745,0,0,1-1.03,1.571,4.61,4.61,0,0,0-.481,3.88,12.577,12.577,0,0,0,2.318,3.434c1.863,2.4,3.03,5.254,4.7,7.778a22.531,22.531,0,0,0,2.447,3.108,1.665,1.665,0,0,0,.524.421,1.829,1.829,0,0,0,.618.094c3.537.094,7.211.172,10.465-1.219a4.824,4.824,0,0,0,2.507-2.009c.644-1.21.378-2.678.249-4.043a18.285,18.285,0,0,1,.1-4.438,2.035,2.035,0,0,1,.567-1.348,1.82,1.82,0,0,1,1.794-.052,4.516,4.516,0,0,0,1.786.532c1.228-.043,1.992-1.374,2.189-2.575s.086-2.507.661-3.6a11.5,11.5,0,0,1,1.837-2.1,8.636,8.636,0,0,0,1.528-7.658C645.285,398.8,642.838,395.659,640.022,395.367Z" transform="translate(-121.366 -88.629)"/><circle class="k" cx="13.135" cy="13.135" r="13.135" transform="translate(576.475 322.654)"/><path class="k" d="M718.121,435.582s.919,12.439-1.631,15.3a114.16,114.16,0,0,1-9.16,8.241l2.035,8.456,11.5,1.322,13.444-14.354-3.056-3.769s-2.344-7.941-.4-11.916S718.121,435.582,718.121,435.582Z" transform="translate(-134.924 -94.316)"/><path class="d" d="M751.022,464.962h0l-.7,1.09-4.078-1.125-2.85-10.636.172-3.091.858-1.21s4.481.1,4.292,4.181C748.5,457.725,750.533,463.605,751.022,464.962Z" transform="translate(-140.028 -96.362)"/><path class="d" d="M755.841,535.346s-3.245.721-6.954,1.2-8,.738-9.752-.292c-2.945-1.717-18.886-1.245-23.505-1.065h-.79l1.185-4.361h31.669l.386,1.871,4.5.266,2.575.567C755.574,534.624,755.841,535.346,755.841,535.346Z" transform="translate(-135.987 -107.803)"/><path class="s" d="M736.921,450.92s4.481.094,4.292,4.172,2.438,11.1,2.438,11.1l-1.013,2.344s-1.425,5.7-.309,7.125,5.194,1.425,2.85,13.135c0,0-.507,8.756.713,11.607s1.228,9.675,3.056,12.525,4.292,9.443,4.292,9.443-13.238,2.953-16.7.91-24.75-1.013-24.75-1.013.1-3.563,0-3.975a3.434,3.434,0,0,1,.515-2.575c.713-.97,1.829-2.575,1.219-4.026s1.528-3.52.412-5.735-2.49-2.644-2.215-3.855a5.2,5.2,0,0,0-1.253-3.855c-.816-1.022-6.31-11.778-6.31-11.778l-.919-5.022s-7.091-5.194-6.954-7.64,2.678-5.829,2.678-5.829l6.868-6.7s3.76,4.078,7.434,2.653,11.538-8.25,11.538-8.25,2.816-1.528,3.022-2.644,1.932-.1,1.932-.1,2.575-1.4,3.056-.9a8.466,8.466,0,0,0,2.747.9Z" transform="translate(-133.362 -96.494)"/><path class="k" d="M693.389,475.63l-2.172,1.717s-2.215,3.975-2.721,11.1a146.565,146.565,0,0,1-2.747,17.169l-4.292,7.657s-7.031,14.757-7.949,18.68-5.091,10.542-5.091,10.542-14.156,12.723-4.292,15.015,10.181-10.121,10.181-10.121,2.3-2.575,2.678-4.292,12.877-23.874,12.877-23.874,4.378-5.958,3.434-9.117c0,0,5.7-13.409,5.7-16.766a59.125,59.125,0,0,0-.919-8.387l.919-7.022Z" transform="translate(-128.315 -99.991)"/><path class="d" d="M731,508.33s-9.984,5.219-11.916,5.494,8.447-1.116,8.447-1.116Z" transform="translate(-136.554 -104.619)"/><path class="d" d="M739.3,513.07s-13.238,4.481-19.041,3.666C720.26,516.736,734.717,519.491,739.3,513.07Z" transform="translate(-136.754 -105.29)"/><path class="d" d="M740.266,514.77s-11.916,7.5-18.946,6.284c0,0,16.4,3.254,18.946,1.528l-7.331-2.043S741.082,516.238,740.266,514.77Z" transform="translate(-136.904 -105.53)"/><path class="d" d="M721.305,402.229c-3.434-.7-7.263-.266-10.018,1.9-2.043,1.605-3.434,4.061-5.7,5.262a32.85,32.85,0,0,1-3.717,1.3,10.757,10.757,0,0,0-6.567,11.564c.361,2.017,1.3,3.88,1.777,5.881.858,3.554.094,7.271-.807,10.808a113.912,113.912,0,0,1-11.315,28.072,2.935,2.935,0,0,0-.558,1.88,2.694,2.694,0,0,0,.7,1.21c4.7,5.434,12.362,7.306,19.547,7.546,2.653.094,5.426,0,7.726-1.288a11.7,11.7,0,0,0,3.786-3.434,18.405,18.405,0,0,0,3.5-11.83c-.2-3.434-1.339-6.868-.481-10.173a2.763,2.763,0,0,1,.61-1.253c.773-.79,2.06-.575,3.159-.7,3-.352,4.919-3.5,5.28-6.49s-.395-6.009-.412-9.005a18.793,18.793,0,0,1,3.554-11.074c1-1.374,2.258-2.721,2.575-4.438.412-2.146-.859-3.726-1.9-5.426-1.717-2.635-2.49-5.726-5.031-7.726A13.667,13.667,0,0,0,721.305,402.229Z" transform="translate(-131.679 -89.559)"/><path class="t" d="M720.355,401.28c-3.434-.687-7.263-.266-10.018,1.906-2.043,1.605-3.434,4.052-5.7,5.254a34.672,34.672,0,0,1-3.717,1.313,10.722,10.722,0,0,0-6.559,11.555c.361,2.017,1.3,3.889,1.768,5.881.859,3.554.1,7.271-.807,10.808a113.589,113.589,0,0,1-11.315,28.072,2.944,2.944,0,0,0-.558,1.88,2.7,2.7,0,0,0,.7,1.21c4.7,5.434,12.362,7.306,19.556,7.546,2.644.094,5.417,0,7.726-1.279a11.82,11.82,0,0,0,3.786-3.477,18.406,18.406,0,0,0,3.5-11.83c-.2-3.434-1.339-6.868-.481-10.173a2.739,2.739,0,0,1,.61-1.245c.773-.8,2.06-.584,3.159-.713,3-.352,4.919-3.5,5.28-6.49s-.395-6.009-.412-9.005a18.887,18.887,0,0,1,3.554-11.074c1-1.374,2.266-2.721,2.575-4.438.421-2.146-.858-3.717-1.9-5.426-1.717-2.635-2.49-5.717-5.031-7.726a13.666,13.666,0,0,0-5.717-2.55Z" transform="translate(-131.544 -89.425)"/><path class="d" d="M658.133,467.9a17.291,17.291,0,0,0,0,5.563c-.137,1.494,0,9.778,0,9.778-4.481-1.356-15.882,1.365-15.882,1.365l-1.365-4.078a10.087,10.087,0,0,1-1.717-3.348,35.313,35.313,0,0,1-1.065-4.009,82.909,82.909,0,0,1-1.331-8.525c-.567-4.292,5.855-8.962,10.714-11.546s9.117,8.413,9.117,8.413S658.674,465.723,658.133,467.9Z" transform="translate(-124.934 -96.746)"/><path class="n" d="M658.133,466.945a17.291,17.291,0,0,0,0,5.563c-.137,1.494,0,9.778,0,9.778-4.481-1.356-15.882,1.365-15.882,1.365l-1.365-4.078a10,10,0,0,1-1.717-3.348,35.314,35.314,0,0,1-1.065-4.009,82.909,82.909,0,0,1-1.331-8.525c-.567-4.292,5.855-8.962,10.714-11.546s9.117,8.413,9.117,8.413S658.674,464.773,658.133,466.945Z" transform="translate(-124.934 -96.611)"/><path class="d" d="M721.32,549.65s2.575,12.216,6.962,15.547Z" transform="translate(-136.904 -110.467)"/><path class="g" d="M645.961,401.951a9.124,9.124,0,0,0-1-2.181c.069.189.137.369.189.549a8.636,8.636,0,0,1-1.528,7.658,11.878,11.878,0,0,0-1.846,2.1,11.412,11.412,0,0,0-.652,3.606c-.189,1.219-.97,2.575-2.189,2.575a4.516,4.516,0,0,1-1.786-.532,1.846,1.846,0,0,0-1.794.06,1.992,1.992,0,0,0-.566,1.339,18.285,18.285,0,0,0-.1,4.438c.129,1.365.395,2.833-.249,4.043a4.825,4.825,0,0,1-2.507,2.009c-3.262,1.4-6.928,1.322-10.473,1.219a1.9,1.9,0,0,1-.618-.094,1.528,1.528,0,0,1-.515-.421,22.964,22.964,0,0,1-2.447-3.1c-1.674-2.533-2.841-5.383-4.7-7.778-.507-.661-1.073-1.3-1.537-1.974a.708.708,0,0,0,0,.129,12.394,12.394,0,0,0,2.318,3.434c1.854,2.4,3.022,5.254,4.7,7.778a22.468,22.468,0,0,0,2.438,3.108,1.77,1.77,0,0,0,.524.421,1.9,1.9,0,0,0,.618.094c3.545.094,7.211.172,10.473-1.219a4.825,4.825,0,0,0,2.507-2.009c.644-1.21.378-2.678.249-4.043a18.721,18.721,0,0,1,.094-4.438,2.087,2.087,0,0,1,.575-1.348,1.82,1.82,0,0,1,1.794-.052,4.472,4.472,0,0,0,1.777.532c1.228-.043,2-1.374,2.189-2.575a11.213,11.213,0,0,1,.661-3.6,11.544,11.544,0,0,1,1.846-2.1A8.662,8.662,0,0,0,645.961,401.951Z" transform="translate(-121.381 -89.255)"/><g class="u" transform="translate(551.936 323.959)"><path d="M696.984,427.615c-.137-.481-.3-.953-.464-1.425C696.657,426.671,696.82,427.143,696.984,427.615Z" transform="translate(-685.33 -416.953)"/><path d="M732.285,415.43a4.035,4.035,0,0,1-.051,1.15c-.335,1.717-1.605,3.065-2.575,4.438A18.886,18.886,0,0,0,726.1,432.1c0,3,.764,6.009.412,9s-2.284,6.147-5.271,6.49c-1.107.129-2.387-.077-3.168.713a2.739,2.739,0,0,0-.61,1.245c-.858,3.305.283,6.765.481,10.173a18.432,18.432,0,0,1-3.5,11.838,11.855,11.855,0,0,1-3.777,3.434c-2.335,1.262-5.151,1.374-7.726,1.288-7.074-.249-14.594-2.06-19.316-7.3a1.82,1.82,0,0,0-.12.979,2.7,2.7,0,0,0,.7,1.21c4.7,5.434,12.362,7.306,19.556,7.546,2.644.094,5.417,0,7.726-1.279a11.821,11.821,0,0,0,3.786-3.477,18.406,18.406,0,0,0,3.5-11.83c-.2-3.434-1.339-6.868-.481-10.173a2.738,2.738,0,0,1,.61-1.245c.773-.8,2.06-.584,3.159-.713,3-.352,4.919-3.5,5.28-6.49s-.395-6.009-.412-9.005a18.886,18.886,0,0,1,3.554-11.074c1-1.374,2.266-2.721,2.575-4.438a5.048,5.048,0,0,0-.773-3.563Z" transform="translate(-683.485 -415.43)"/></g></g></svg>